<svg width="222" height="230" viewBox="0 0 222 230" fill="none" xmlns="http://www.w3.org/2000/svg">
<line y1="51" x2="60" y2="51" stroke="black" stroke-width="2"/>
<line x1="174" y1="114" x2="222" y2="114" stroke="black" stroke-width="2"/>
<line x1="-0.00415039" y1="170.5" x2="59.9958" y2="170.5" stroke="black" stroke-width="2"/>
<mask id="path-4-inside-1_0_1" fill="white">
<path d="M59 230C74.102 230 89.0562 227.025 103.009 221.246C116.961 215.467 129.639 206.996 140.317 196.317C150.996 185.639 159.467 172.961 165.246 159.009C171.025 145.056 174 130.102 174 115C174 99.898 171.025 84.9438 165.246 70.9914C159.467 57.039 150.996 44.3615 140.317 33.6827C129.639 23.004 116.961 14.5331 103.009 8.75385C89.0561 2.97456 74.102 -1.14017e-06 59 0L59 115L59 230Z"/>
</mask>
<path d="M59 230C74.102 230 89.0562 227.025 103.009 221.246C116.961 215.467 129.639 206.996 140.317 196.317C150.996 185.639 159.467 172.961 165.246 159.009C171.025 145.056 174 130.102 174 115C174 99.898 171.025 84.9438 165.246 70.9914C159.467 57.039 150.996 44.3615 140.317 33.6827C129.639 23.004 116.961 14.5331 103.009 8.75385C89.0561 2.97456 74.102 -1.14017e-06 59 0L59 115L59 230Z" stroke="black" stroke-width="4" mask="url(#path-4-inside-1_0_1)"/>
</svg>
