<svg xmlns="http://www.w3.org/2000/svg" xmlns:xlink="http://www.w3.org/1999/xlink" width="542" zoomAndPan="magnify" viewBox="0 0 406.5 112.499997" height="150" preserveAspectRatio="xMidYMid meet" version="1.0"><defs><clipPath id="8df54137e1"><path d="M 7.960938 84.566406 L 316.125 84.566406 L 316.125 103.402344 L 7.960938 103.402344 Z M 7.960938 84.566406 " clip-rule="nonzero"/></clipPath></defs><path fill="#000000" d="M 12.507812 15.476562 C 13.25 15.476562 14.03125 15.886719 14.832031 16.695312 C 15.644531 17.5 16.195312 18.476562 16.488281 19.625 C 17.996094 28.535156 22.128906 44.613281 28.890625 67.863281 C 29.210938 67.105469 30.902344 63.597656 33.960938 57.34375 L 43.132812 38.425781 C 43.742188 37.277344 44.894531 34.960938 46.578125 31.484375 C 49.277344 25.953125 51.535156 21.660156 53.339844 18.601562 C 55.15625 15.550781 56.789062 14.019531 58.226562 14.019531 C 58.550781 14.019531 58.917969 14.21875 59.332031 14.621094 C 59.742188 15.015625 60.09375 15.605469 60.386719 16.394531 C 60.675781 17.191406 60.820312 18.132812 60.820312 19.238281 C 60.820312 20.433594 60.425781 21.945312 59.632812 23.773438 C 56.285156 29.625 51.304688 39.035156 44.6875 51.988281 C 38.070312 64.9375 33.953125 73.332031 32.339844 77.179688 C 31.769531 78.328125 31.300781 79.148438 30.933594 79.640625 C 30.574219 80.121094 30.011719 80.515625 29.242188 80.828125 C 28.472656 81.128906 27.367188 81.277344 25.929688 81.277344 C 25.425781 81.277344 23.792969 76.761719 21.042969 67.730469 C 18.296875 58.6875 15.691406 49.324219 13.226562 39.644531 C 10.757812 29.96875 9.527344 23.835938 9.527344 21.246094 C 9.527344 19.664062 9.703125 18.308594 10.0625 17.179688 C 10.429688 16.042969 11.242188 15.476562 12.507812 15.476562 Z M 12.507812 15.476562 " fill-opacity="1" fill-rule="nonzero"/><path fill="#000000" d="M 80.886719 10.992188 C 80.886719 15.488281 79.214844 17.734375 75.867188 17.734375 C 74.394531 17.734375 73.011719 17.304688 71.734375 16.445312 C 70.460938 15.589844 69.824219 14.078125 69.824219 11.914062 C 69.824219 10.839844 70.117188 9.75 70.710938 8.632812 C 71.300781 7.519531 72.039062 6.605469 72.921875 5.890625 C 73.800781 5.167969 74.636719 4.804688 75.429688 4.804688 C 76.902344 4.804688 78.179688 5.273438 79.261719 6.207031 C 80.34375 7.136719 80.886719 8.730469 80.886719 10.992188 Z M 77.859375 76.425781 C 77.859375 78.226562 77.476562 79.648438 76.71875 80.691406 C 75.972656 81.730469 75.128906 82.25 74.191406 82.25 C 72.863281 82.25 71.808594 81.828125 71.03125 80.992188 C 70.261719 80.148438 69.679688 78.730469 69.289062 76.746094 C 68.996094 75.03125 68.855469 71.351562 68.855469 65.707031 C 68.855469 56.363281 69.222656 47.890625 69.957031 40.296875 C 70.695312 32.695312 72.371094 28.890625 74.996094 28.890625 C 76.074219 28.890625 76.785156 29.371094 77.121094 30.328125 C 77.464844 31.277344 77.640625 32.648438 77.640625 34.441406 L 77.207031 41.988281 C 77.023438 44.542969 76.863281 47.222656 76.71875 50.03125 C 76.585938 52.835938 76.519531 55.328125 76.519531 57.507812 C 76.519531 59.851562 76.746094 63.125 77.207031 67.328125 C 77.640625 71.710938 77.859375 74.746094 77.859375 76.425781 Z M 77.859375 76.425781 " fill-opacity="1" fill-rule="nonzero"/><path fill="#000000" d="M 105.582031 82.683594 C 102.125 82.683594 98.9375 81.988281 96.027344 80.609375 C 93.117188 79.230469 91.660156 76.609375 91.660156 72.765625 C 91.660156 72.152344 91.835938 71.386719 92.195312 70.472656 C 92.5625 69.5625 93.015625 68.773438 93.550781 68.113281 C 94.085938 67.445312 94.625 67.109375 95.175781 67.109375 C 95.351562 67.109375 95.796875 67.4375 96.511719 68.082031 C 97.449219 69.265625 98.359375 70.152344 99.242188 70.738281 C 100.121094 71.332031 101.121094 71.726562 102.234375 71.929688 C 103.347656 72.128906 104.839844 72.230469 106.703125 72.230469 C 108.578125 72.230469 110.605469 71.992188 112.78125 71.507812 C 114.957031 71.019531 116.796875 70.453125 118.300781 69.804688 C 119.808594 69.160156 120.5625 68.632812 120.5625 68.230469 C 120.5625 67.261719 120.09375 66.464844 119.15625 65.839844 C 118.226562 65.214844 117.082031 64.726562 115.707031 64.367188 C 114.34375 64 112.335938 63.546875 109.683594 63.011719 C 105.472656 62.222656 102.011719 61.386719 99.289062 60.503906 C 96.578125 59.625 94.222656 58.207031 92.230469 56.253906 C 90.230469 54.292969 89.234375 51.636719 89.234375 48.292969 C 89.234375 44.167969 90.363281 40.546875 92.628906 37.4375 C 94.894531 34.324219 97.777344 31.933594 101.28125 30.261719 C 104.796875 28.589844 108.332031 27.753906 111.894531 27.753906 C 114.222656 27.753906 116.316406 28.222656 118.167969 29.15625 C 120.019531 30.09375 121.457031 31.328125 122.484375 32.855469 C 123.511719 34.382812 124.027344 36.027344 124.027344 37.789062 C 124.027344 40.625 123.808594 42.941406 123.375 44.746094 C 122.9375 46.546875 121.910156 47.441406 120.292969 47.441406 C 119.5 47.441406 118.976562 47.0625 118.71875 46.300781 C 118.472656 45.546875 118.351562 44.375 118.351562 42.789062 C 118.351562 41.109375 117.703125 39.941406 116.410156 39.292969 C 115.113281 38.648438 113.171875 38.324219 110.585938 38.324219 C 108.789062 38.324219 106.792969 38.773438 104.597656 39.679688 C 102.40625 40.574219 100.539062 41.734375 98.988281 43.175781 C 97.449219 44.613281 96.679688 46.101562 96.679688 47.640625 C 96.679688 49.226562 97.269531 50.511719 98.453125 51.503906 C 99.648438 52.488281 101.121094 53.238281 102.871094 53.761719 C 104.632812 54.289062 107.066406 54.859375 110.167969 55.46875 C 113.972656 56.21875 117.039062 56.96875 119.375 57.726562 C 121.714844 58.488281 123.699219 59.664062 125.332031 61.257812 C 126.972656 62.851562 127.792969 65 127.792969 67.695312 C 127.792969 71.109375 126.476562 73.941406 123.859375 76.191406 C 121.234375 78.433594 118.167969 80.074219 114.652344 81.109375 C 111.148438 82.15625 108.128906 82.683594 105.582031 82.683594 Z M 105.582031 82.683594 " fill-opacity="1" fill-rule="nonzero"/><path fill="#000000" d="M 147.53125 33.089844 C 147.53125 34.574219 147.171875 37.144531 146.460938 40.800781 C 145.945312 43.5 145.5625 45.765625 145.308594 47.605469 C 145.058594 49.4375 144.9375 51.265625 144.9375 53.09375 C 144.9375 55.714844 145.207031 58.476562 145.742188 61.375 C 146.285156 64.261719 147.316406 66.792969 148.820312 68.96875 C 150.335938 71.140625 152.441406 72.230469 155.128906 72.230469 C 158.476562 72.230469 161.253906 71.332031 163.464844 69.535156 C 165.671875 67.742188 167.75 65.246094 169.691406 62.042969 C 169.765625 61.105469 169.964844 57.621094 170.292969 51.589844 L 170.394531 48.894531 L 170.558594 33.859375 C 170.558594 32.308594 170.988281 31.160156 171.847656 30.410156 C 172.71875 29.65625 173.613281 29.273438 174.542969 29.273438 C 175.367188 29.273438 176.117188 29.65625 176.785156 30.410156 C 177.457031 31.160156 177.789062 32.199219 177.789062 33.523438 L 176.921875 76.425781 C 176.886719 78.445312 176.617188 79.804688 176.117188 80.507812 C 175.613281 81.199219 174.730469 81.546875 173.472656 81.546875 C 172.390625 81.546875 171.570312 81.363281 171.011719 80.992188 C 170.453125 80.617188 170.046875 79.824219 169.789062 78.617188 C 169.542969 77.414062 169.421875 75.535156 169.421875 72.980469 C 169.421875 71.152344 169.460938 69.660156 169.539062 68.5 C 168.925781 71.132812 167.871094 73.523438 166.375 75.675781 C 164.878906 77.828125 163.179688 79.515625 161.273438 80.742188 C 159.371094 81.957031 157.511719 82.566406 155.683594 82.566406 C 148.59375 82.566406 143.835938 79.707031 141.390625 73.984375 C 138.949219 68.257812 137.726562 61.703125 137.726562 54.332031 C 137.726562 50.597656 137.933594 46.816406 138.363281 42.992188 C 138.796875 39.167969 139.523438 35.925781 140.554688 33.273438 C 141.578125 30.609375 142.917969 29.273438 144.570312 29.273438 C 146.546875 29.273438 147.53125 30.546875 147.53125 33.089844 Z M 147.53125 33.089844 " fill-opacity="1" fill-rule="nonzero"/><path fill="#000000" d="M 208.691406 81.011719 C 207.675781 81.011719 206.488281 81.097656 205.125 81.277344 C 204.800781 81.3125 204.179688 81.363281 203.269531 81.429688 C 202.351562 81.503906 201.480469 81.546875 200.640625 81.546875 C 199.570312 81.546875 197.128906 81.367188 193.3125 81.011719 C 192.886719 81.011719 192.535156 80.9375 192.257812 80.792969 C 191.988281 80.652344 191.78125 80.324219 191.636719 79.824219 C 191.492188 79.320312 191.421875 78.53125 191.421875 77.449219 C 191.421875 75.910156 191.480469 74.261719 191.605469 72.496094 C 191.738281 70.734375 191.910156 68.796875 192.125 66.675781 L 192.457031 63.28125 C 192.457031 60.371094 192.398438 57.152344 192.289062 53.628906 C 192.179688 50.109375 192.105469 47.785156 192.074219 46.671875 C 191.78125 39.34375 191.636719 33.832031 191.636719 30.128906 C 191.636719 26.179688 191.714844 23.210938 191.871094 21.210938 C 192.039062 19.21875 192.382812 17.757812 192.910156 16.828125 C 193.433594 15.894531 194.230469 15.425781 195.304688 15.425781 C 195.949219 15.425781 196.609375 15.722656 197.277344 16.3125 C 197.949219 16.90625 198.492188 17.679688 198.917969 18.636719 C 199.351562 19.585938 199.570312 20.578125 199.570312 21.613281 C 199.570312 23.265625 199.460938 25.117188 199.253906 27.167969 L 199.035156 29.691406 C 199.035156 36.597656 199.070312 41.769531 199.136719 45.214844 L 199.789062 69.535156 C 201.113281 69.570312 203.039062 69.660156 205.5625 69.804688 C 211.664062 70.097656 216.390625 70.238281 219.738281 70.238281 C 219.992188 70.238281 220.679688 70.167969 221.796875 70.019531 C 222.183594 69.945312 223.601562 69.746094 226.046875 69.417969 C 227.050781 69.453125 227.90625 70.097656 228.625 71.34375 C 229.347656 72.582031 229.710938 73.992188 229.710938 75.574219 C 229.710938 76.402344 229.476562 77.289062 229.007812 78.234375 C 228.539062 79.183594 227.960938 79.972656 227.285156 80.609375 C 226.601562 81.230469 225.953125 81.546875 225.34375 81.546875 C 223.253906 81.546875 220.777344 81.453125 217.914062 81.277344 C 217.265625 81.246094 215.988281 81.1875 214.082031 81.109375 C 212.171875 81.042969 210.375 81.011719 208.691406 81.011719 Z M 208.691406 81.011719 " fill-opacity="1" fill-rule="nonzero"/><path fill="#000000" d="M 257.375 82.25 C 253.601562 82.25 250.046875 80.921875 246.699219 78.265625 C 243.359375 75.601562 240.695312 72.238281 238.699219 68.164062 C 236.699219 64.082031 235.703125 60.0625 235.703125 56.105469 C 235.703125 49.859375 236.792969 44.710938 238.96875 40.648438 C 241.144531 36.578125 243.964844 33.625 247.4375 31.785156 C 250.902344 29.933594 254.652344 29.007812 258.683594 29.007812 C 262.953125 29.007812 266.636719 30.109375 269.726562 32.320312 C 272.816406 34.527344 275.175781 37.671875 276.804688 41.753906 C 278.445312 45.824219 279.265625 50.609375 279.265625 56.105469 C 279.265625 61.101562 278.234375 65.597656 276.171875 69.585938 C 274.105469 73.578125 271.386719 76.691406 268.019531 78.917969 C 264.660156 81.136719 261.113281 82.25 257.375 82.25 Z M 272.203125 55.621094 C 272.203125 52.433594 271.671875 49.597656 270.613281 47.121094 C 269.550781 44.636719 268.085938 42.703125 266.214844 41.316406 C 264.347656 39.9375 262.265625 39.242188 259.96875 39.242188 C 257.125 39.242188 254.367188 39.847656 251.703125 41.050781 C 249.046875 42.253906 246.875 44.042969 245.191406 46.417969 C 243.507812 48.785156 242.667969 51.636719 242.667969 54.984375 C 242.667969 57.785156 243.34375 60.519531 244.707031 63.195312 C 246.066406 65.871094 247.847656 68.046875 250.046875 69.71875 C 252.242188 71.390625 254.507812 72.230469 256.839844 72.230469 C 259.492188 72.230469 262 71.566406 264.355469 70.238281 C 266.71875 68.898438 268.613281 66.984375 270.046875 64.484375 C 271.484375 61.988281 272.203125 59.03125 272.203125 55.621094 Z M 272.203125 55.621094 " fill-opacity="1" fill-rule="nonzero"/><path fill="#000000" d="M 314.378906 96.316406 C 316.0625 96.316406 317.359375 95.535156 318.261719 93.972656 C 319.167969 92.410156 319.777344 90.53125 320.105469 88.335938 C 320.425781 86.148438 320.710938 83.238281 320.957031 79.605469 C 321.097656 77.097656 321.246094 75.246094 321.390625 74.050781 C 320.992188 75.671875 320.023438 77.109375 318.496094 78.367188 C 316.976562 79.628906 315.207031 80.589844 313.191406 81.246094 C 311.183594 81.914062 309.3125 82.25 307.585938 82.25 C 301.113281 82.25 296.191406 80.265625 292.824219 76.292969 C 289.464844 72.324219 287.789062 66.425781 287.789062 58.597656 C 287.789062 53.492188 288.539062 48.710938 290.046875 44.261719 C 291.5625 39.804688 293.855469 36.207031 296.925781 33.472656 C 300.003906 30.742188 303.789062 29.375 308.289062 29.375 C 311.8125 29.375 315.242188 30.554688 318.582031 32.902344 C 321.929688 35.257812 324.628906 38.167969 326.699219 41.636719 C 328.773438 45.105469 329.808594 48.402344 329.808594 51.519531 L 328.773438 77.03125 L 328.722656 77.78125 C 328.542969 78.753906 328.257812 80.960938 327.867188 84.40625 C 327.289062 89.257812 326.632812 93.179688 325.910156 96.179688 C 325.195312 99.179688 323.875 101.738281 321.945312 103.859375 C 320.023438 105.976562 317.285156 107.039062 313.726562 107.039062 C 312.332031 107.039062 310.519531 106.789062 308.289062 106.300781 C 306.054688 105.820312 304.046875 105.003906 302.265625 103.859375 C 300.488281 102.710938 299.601562 101.183594 299.601562 99.277344 C 299.601562 97.476562 299.839844 96.113281 300.324219 95.179688 C 300.8125 94.25 301.703125 93.789062 303 93.789062 C 303.324219 93.789062 303.621094 93.839844 303.886719 93.941406 C 304.15625 94.050781 304.414062 94.195312 304.671875 94.375 C 305.578125 94.953125 306.691406 95.421875 308.019531 95.78125 C 309.347656 96.136719 311.46875 96.316406 314.378906 96.316406 Z M 308.773438 72.230469 C 311.003906 72.230469 313.050781 71.421875 314.914062 69.804688 C 316.789062 68.1875 318.351562 66.203125 319.601562 63.847656 C 320.859375 61.5 321.78125 59.164062 322.363281 56.855469 C 321.960938 53.738281 321.351562 50.953125 320.539062 48.511719 C 319.734375 46.066406 318.4375 44.007812 316.65625 42.320312 C 314.882812 40.628906 312.488281 39.777344 309.476562 39.777344 C 304.542969 39.777344 300.960938 41.46875 298.734375 44.847656 C 296.511719 48.226562 295.359375 52.574219 295.285156 57.894531 C 295.285156 63.171875 296.449219 66.875 298.78125 69.015625 C 301.125 71.160156 304.457031 72.230469 308.773438 72.230469 Z M 308.773438 72.230469 " fill-opacity="1" fill-rule="nonzero"/><path fill="#000000" d="M 354.132812 10.992188 C 354.132812 15.488281 352.457031 17.734375 349.109375 17.734375 C 347.636719 17.734375 346.257812 17.304688 344.976562 16.445312 C 343.703125 15.589844 343.070312 14.078125 343.070312 11.914062 C 343.070312 10.839844 343.363281 9.75 343.957031 8.632812 C 344.546875 7.519531 345.28125 6.605469 346.164062 5.890625 C 347.042969 5.167969 347.878906 4.804688 348.675781 4.804688 C 350.148438 4.804688 351.425781 5.273438 352.507812 6.207031 C 353.585938 7.136719 354.132812 8.730469 354.132812 10.992188 Z M 351.101562 76.425781 C 351.101562 78.226562 350.722656 79.648438 349.964844 80.691406 C 349.214844 81.730469 348.375 82.25 347.4375 82.25 C 346.105469 82.25 345.050781 81.828125 344.273438 80.992188 C 343.503906 80.148438 342.921875 78.730469 342.535156 76.746094 C 342.242188 75.03125 342.097656 71.351562 342.097656 65.707031 C 342.097656 56.363281 342.464844 47.890625 343.203125 40.296875 C 343.9375 32.695312 345.617188 28.890625 348.238281 28.890625 C 349.320312 28.890625 350.03125 29.371094 350.367188 30.328125 C 350.707031 31.277344 350.882812 32.648438 350.882812 34.441406 L 350.449219 41.988281 C 350.269531 44.542969 350.105469 47.222656 349.964844 50.03125 C 349.828125 52.835938 349.761719 55.328125 349.761719 57.507812 C 349.761719 59.851562 349.988281 63.125 350.449219 67.328125 C 350.882812 71.710938 351.101562 74.746094 351.101562 76.425781 Z M 351.101562 76.425781 " fill-opacity="1" fill-rule="nonzero"/><path fill="#000000" d="M 395.378906 68.882812 C 395.847656 68.882812 396.402344 69.101562 397.050781 69.535156 C 397.695312 69.960938 398.273438 70.65625 398.777344 71.625 C 399.277344 72.597656 399.527344 73.84375 399.527344 75.355469 C 399.527344 76.152344 399.277344 77.003906 398.777344 77.914062 C 398.273438 78.832031 397.671875 79.597656 396.96875 80.207031 C 396.265625 80.808594 395.644531 81.109375 395.109375 81.109375 L 391.929688 81.109375 C 390.699219 81.109375 388.941406 81.183594 386.644531 81.328125 C 384.339844 81.46875 382.5625 81.546875 381.304688 81.546875 C 375.046875 81.546875 370.0625 80.019531 366.359375 76.960938 C 362.652344 73.910156 360.804688 68.714844 360.804688 61.390625 C 360.804688 55.503906 361.761719 50.125 363.683594 45.25 C 365.609375 40.378906 368.425781 36.511719 372.132812 33.65625 C 375.835938 30.804688 380.21875 29.375 385.289062 29.375 C 387.804688 29.375 390.132812 29.992188 392.265625 31.230469 C 394.40625 32.46875 396.113281 34.175781 397.386719 36.351562 C 398.667969 38.523438 399.3125 40.945312 399.3125 43.609375 C 399.3125 44.871094 399.109375 46.160156 398.710938 47.472656 C 398.316406 48.777344 397.710938 49.429688 396.886719 49.429688 C 396.269531 49.429688 395.738281 49.195312 395.296875 48.726562 C 394.847656 48.257812 394.300781 47.523438 393.65625 46.519531 C 392.859375 45.292969 392.097656 44.261719 391.363281 43.425781 C 390.625 42.582031 389.609375 41.847656 388.316406 41.234375 C 387.019531 40.625 385.421875 40.3125 383.511719 40.3125 C 380.566406 40.3125 377.90625 41.167969 375.53125 42.875 C 373.152344 44.578125 371.304688 46.8125 369.992188 49.5625 C 368.6875 52.308594 368.03125 55.191406 368.03125 58.210938 C 368.03125 61.738281 368.695312 64.433594 370.023438 66.308594 C 371.363281 68.171875 373.386719 69.464844 376.097656 70.1875 C 378.8125 70.902344 382.5 71.257812 387.179688 71.257812 C 388.183594 71.257812 389.039062 71.160156 389.753906 70.957031 C 390.480469 70.757812 391.3125 70.449219 392.25 70.019531 C 393.429688 69.445312 394.476562 69.0625 395.378906 68.882812 Z M 395.378906 68.882812 " fill-opacity="1" fill-rule="nonzero"/><g clip-path="url(#8df54137e1)"><path fill="#000000" d="M 171.792969 84.714844 C 180.828125 84.820312 188.464844 85.015625 194.195312 85.300781 C 195.820312 85.375 198.664062 85.507812 200.535156 85.601562 C 205.382812 85.828125 223.277344 87 230.3125 87.550781 C 231.359375 87.625 234.273438 87.839844 236.796875 88.003906 C 239.300781 88.167969 241.65625 88.332031 242.027344 88.378906 C 242.394531 88.425781 246.535156 88.753906 251.238281 89.125 C 255.941406 89.488281 262.339844 89.996094 265.464844 90.257812 C 268.589844 90.496094 274.378906 90.945312 278.363281 91.230469 C 290.90625 92.144531 296.359375 92.65625 300.988281 93.347656 C 302.597656 93.585938 303.65625 93.808594 303.816406 93.960938 C 303.964844 94.097656 304.71875 94.261719 305.734375 94.394531 C 309.847656 94.90625 311.570312 95.269531 313.722656 96.078125 C 315.109375 96.605469 315.210938 96.679688 315.550781 97.292969 C 315.828125 97.820312 315.875 98.011719 315.757812 98.226562 C 315.636719 98.417969 315.636719 98.527344 315.800781 98.660156 C 316.082031 98.898438 316.082031 99.621094 315.800781 99.859375 C 315.609375 100.023438 315.609375 100.070312 315.800781 100.222656 C 316.125 100.476562 315.992188 100.804688 315.390625 101.363281 C 315.082031 101.632812 314.859375 101.949219 314.902344 102.050781 C 315.019531 102.382812 314.84375 102.714844 314.414062 102.921875 C 313.3125 103.507812 307.234375 103.75 302.53125 103.402344 C 300.75 103.269531 297.566406 103.074219 295.457031 102.9375 C 293.355469 102.816406 291.257812 102.683594 290.820312 102.65625 C 290.375 102.609375 289.183594 102.535156 288.160156 102.488281 C 287.144531 102.441406 285.894531 102.367188 285.363281 102.335938 C 284.375 102.277344 282.167969 102.171875 279.097656 102.039062 C 278.125 102.007812 276.402344 101.929688 275.265625 101.871094 C 273.246094 101.78125 272.585938 101.890625 274.175781 102.050781 C 277.285156 102.355469 277.125 102.398438 272.984375 102.324219 C 263.566406 102.171875 246.15625 101.269531 235.46875 100.386719 C 233.035156 100.191406 229.644531 99.917969 227.953125 99.785156 C 226.242188 99.664062 222.925781 99.378906 220.578125 99.183594 C 218.222656 98.976562 214.421875 98.671875 212.109375 98.511719 C 209.792969 98.34375 205.441406 98 202.453125 97.757812 C 197.175781 97.339844 191.261719 96.917969 184.113281 96.484375 C 182.226562 96.378906 180.636719 96.242188 180.589844 96.199219 C 180.519531 96.109375 184.585938 96.035156 185.53125 96.09375 C 185.796875 96.121094 186.015625 96.0625 186.015625 95.988281 C 186.015625 95.914062 185.898438 95.867188 185.75 95.867188 C 185.515625 95.882812 182.671875 95.734375 180.414062 95.582031 C 179.882812 95.554688 178.324219 95.480469 176.949219 95.433594 C 175.566406 95.386719 173.785156 95.328125 172.972656 95.28125 C 172.160156 95.253906 169.933594 95.179688 168.035156 95.132812 C 166.132812 95.085938 164.171875 95.011719 163.683594 94.980469 C 163.199219 94.953125 160.707031 94.875 158.15625 94.832031 C 155.609375 94.789062 152.6875 94.726562 151.671875 94.683594 C 150.65625 94.636719 146.707031 94.574219 142.902344 94.535156 C 139.085938 94.488281 135.148438 94.414062 134.132812 94.382812 C 124.875 94.066406 59.089844 93.976562 49.820312 94.261719 C 46.53125 94.367188 41.785156 94.515625 39.28125 94.609375 C 33.753906 94.773438 26.960938 94.894531 27.269531 94.800781 C 27.402344 94.773438 28.566406 94.652344 29.847656 94.546875 L 32.207031 94.355469 L 29.996094 94.320312 C 28.769531 94.292969 27.648438 94.214844 27.492188 94.140625 C 27.253906 94.035156 27.28125 94.007812 27.667969 94.054688 C 27.929688 94.082031 28.152344 94.054688 28.152344 93.976562 C 28.152344 93.914062 27.742188 93.855469 27.222656 93.855469 C 26.648438 93.855469 26.382812 93.914062 26.515625 93.988281 C 26.632812 94.082031 26.472656 94.097656 26.074219 94.054688 C 25.074219 93.929688 14.398438 94.90625 10.304688 95.492188 C 9.714844 95.566406 9.386719 95.554688 9.210938 95.417969 C 9.066406 95.3125 8.753906 95.269531 8.457031 95.3125 C 8.136719 95.375 7.960938 95.339844 7.960938 95.222656 C 7.960938 95.132812 8.105469 95.054688 8.300781 95.054688 C 8.488281 95.054688 8.769531 94.953125 8.929688 94.832031 C 9.210938 94.621094 9.210938 94.609375 8.871094 94.515625 C 8.429688 94.382812 8.457031 94.203125 8.949219 94.097656 C 14.078125 92.988281 35.640625 90.976562 59.621094 89.351562 C 62.128906 89.191406 65.816406 88.917969 67.800781 88.753906 C 69.792969 88.585938 72.84375 88.347656 74.585938 88.226562 C 76.320312 88.09375 78.917969 87.898438 80.332031 87.777344 C 81.746094 87.65625 84.5625 87.445312 86.597656 87.328125 C 88.617188 87.207031 92.296875 86.964844 94.777344 86.800781 C 106.273438 86.035156 110.945312 85.839844 124.84375 85.507812 C 127.234375 85.449219 129.371094 85.386719 129.59375 85.375 C 129.828125 85.359375 131.269531 85.347656 132.820312 85.328125 C 134.515625 85.3125 135.59375 85.242188 135.53125 85.167969 C 135.488281 85.074219 135.578125 85.015625 135.710938 85.027344 C 136.875 85.046875 138.65625 84.953125 139.511719 84.835938 C 140.792969 84.640625 159.335938 84.582031 171.792969 84.714844 Z M 188.933594 90.871094 C 188.996094 90.929688 189.996094 91.019531 191.175781 91.0625 C 192.355469 91.125 193.578125 91.199219 193.902344 91.230469 C 194.226562 91.257812 195.421875 91.335938 196.554688 91.378906 C 197.691406 91.425781 198.945312 91.496094 199.355469 91.53125 C 199.753906 91.574219 200.757812 91.636719 201.570312 91.683594 C 202.375 91.722656 203.277344 91.785156 203.554688 91.828125 C 203.835938 91.863281 204.792969 91.9375 205.695312 91.980469 C 206.578125 92.042969 207.503906 92.101562 207.757812 92.128906 C 207.996094 92.160156 208.835938 92.222656 209.601562 92.28125 C 210.957031 92.371094 211.738281 92.429688 213.726562 92.582031 C 214.257812 92.609375 215.273438 92.683594 216.011719 92.730469 C 217.867188 92.851562 219.433594 92.957031 220.210938 93.03125 C 220.976562 93.109375 224.003906 93.347656 225.8125 93.480469 C 226.507812 93.527344 227.363281 93.601562 227.730469 93.628906 C 228.097656 93.660156 228.953125 93.734375 229.644531 93.78125 C 230.339844 93.828125 231.269531 93.886719 231.707031 93.929688 C 232.152344 93.960938 233.050781 94.035156 233.699219 94.082031 C 235.335938 94.203125 236.371094 94.277344 239.59375 94.535156 C 243.253906 94.816406 248.304688 95.160156 250.355469 95.28125 C 251.238281 95.328125 252.507812 95.402344 253.15625 95.433594 C 253.804688 95.480469 254.792969 95.539062 255.367188 95.582031 C 258.109375 95.746094 260.511719 95.839844 260.453125 95.761719 C 260.363281 95.671875 259.257812 95.554688 257.355469 95.433594 C 256.664062 95.386719 255.871094 95.328125 255.589844 95.28125 C 255.308594 95.253906 254.511719 95.179688 253.820312 95.132812 C 251.460938 94.96875 250.648438 94.90625 249.839844 94.832031 C 249.398438 94.789062 246.167969 94.5625 242.691406 94.308594 C 239.199219 94.066406 235.054688 93.75 233.480469 93.628906 C 225.339844 93 214.953125 92.25 206.429688 91.683594 C 205.855469 91.648438 204.707031 91.574219 203.851562 91.53125 C 202.996094 91.484375 201.171875 91.394531 199.796875 91.304688 C 196.597656 91.125 194.875 91.035156 192.210938 90.914062 C 191.03125 90.871094 190.054688 90.808594 190.042969 90.796875 C 189.953125 90.71875 188.84375 90.796875 188.933594 90.871094 Z M 114.675781 91.304688 C 105.671875 91.46875 102.707031 91.53125 91.902344 91.828125 C 79.316406 92.191406 74.703125 92.371094 72.890625 92.609375 C 72.269531 92.683594 72.210938 92.714844 72.523438 92.820312 C 72.726562 92.882812 72.796875 92.929688 72.699219 92.941406 C 72.609375 92.957031 72.523438 93.03125 72.523438 93.109375 C 72.523438 93.289062 72.226562 93.289062 122.046875 93.328125 C 142.515625 93.347656 160.382812 93.40625 161.765625 93.46875 C 163.804688 93.542969 175.875 93.617188 176.9375 93.570312 C 177.480469 93.542969 177.027344 93.347656 176.320312 93.316406 C 173.667969 93.183594 171.867188 93.109375 169.359375 93.015625 C 167.785156 92.96875 166.28125 92.910156 166.042969 92.882812 C 165.792969 92.851562 165.054688 92.820312 164.394531 92.820312 C 163.375 92.808594 163.199219 92.777344 163.257812 92.582031 C 163.316406 92.429688 163.257812 92.355469 163.097656 92.355469 C 162.933594 92.355469 162.875 92.429688 162.933594 92.582031 C 162.992188 92.761719 162.859375 92.808594 162.226562 92.808594 C 161.53125 92.808594 161.414062 92.761719 161.328125 92.460938 L 161.222656 92.128906 L 161.117188 92.503906 L 161.019531 92.882812 L 160.929688 92.535156 C 160.855469 92.25 160.75 92.191406 160.265625 92.222656 C 159.664062 92.234375 154.738281 92.101562 152.40625 91.980469 C 151.640625 91.949219 148.753906 91.875 146 91.816406 C 143.242188 91.757812 140.722656 91.695312 140.394531 91.683594 C 140.074219 91.664062 138.257812 91.636719 136.371094 91.617188 C 134.398438 91.617188 132.953125 91.542969 132.953125 91.46875 C 132.953125 91.378906 136.050781 91.316406 140.648438 91.304688 C 144.878906 91.304688 148.371094 91.257812 148.417969 91.230469 C 148.535156 91.097656 122.578125 91.15625 114.675781 91.304688 Z M 161.988281 92.414062 C 161.988281 92.460938 162.046875 92.535156 162.140625 92.582031 C 162.210938 92.625 162.285156 92.597656 162.285156 92.523438 C 162.285156 92.429688 162.210938 92.355469 162.140625 92.355469 C 162.046875 92.355469 161.988281 92.382812 161.988281 92.414062 Z M 198.058594 92.910156 C 198.164062 92.941406 198.367188 92.941406 198.5 92.910156 C 198.648438 92.867188 198.558594 92.835938 198.324219 92.835938 C 198.074219 92.835938 197.96875 92.867188 198.058594 92.910156 Z M 200.949219 93.046875 C 200.992188 93.089844 201.125 93.109375 201.230469 93.0625 C 201.347656 93.015625 201.300781 92.96875 201.136719 92.96875 C 200.976562 92.957031 200.890625 93 200.949219 93.046875 Z M 71.933594 93.109375 C 71.933594 93.183594 71.992188 93.253906 72.0625 93.253906 C 72.148438 93.253906 72.253906 93.183594 72.300781 93.109375 C 72.339844 93.015625 72.28125 92.957031 72.167969 92.957031 C 72.03125 92.957031 71.933594 93.015625 71.933594 93.109375 Z M 202.554688 93.210938 C 202.703125 93.242188 202.9375 93.242188 203.070312 93.210938 C 203.21875 93.167969 203.101562 93.136719 202.820312 93.136719 C 202.539062 93.136719 202.421875 93.167969 202.554688 93.210938 Z M 204.695312 93.363281 C 204.882812 93.390625 205.207031 93.390625 205.429688 93.363281 C 205.664062 93.328125 205.5 93.300781 205.105469 93.300781 C 204.695312 93.300781 204.515625 93.328125 204.695312 93.363281 Z M 177.453125 93.601562 C 177.644531 93.796875 177.835938 93.648438 177.6875 93.421875 C 177.644531 93.328125 177.527344 93.300781 177.4375 93.347656 C 177.347656 93.40625 177.347656 93.496094 177.453125 93.601562 Z M 206.902344 93.511719 C 207.09375 93.542969 207.417969 93.542969 207.640625 93.511719 C 207.878906 93.480469 207.714844 93.449219 207.316406 93.449219 C 206.902344 93.449219 206.726562 93.480469 206.902344 93.511719 Z M 47.566406 93.511719 C 47.667969 93.542969 47.84375 93.542969 47.933594 93.511719 C 48.039062 93.46875 47.960938 93.4375 47.757812 93.4375 C 47.550781 93.4375 47.476562 93.46875 47.566406 93.511719 Z M 33.5625 93.511719 C 33.667969 93.542969 33.84375 93.542969 33.929688 93.511719 C 34.035156 93.46875 33.960938 93.4375 33.753906 93.4375 C 33.550781 93.4375 33.472656 93.46875 33.5625 93.511719 Z M 209.1875 93.660156 C 209.421875 93.691406 209.777344 93.691406 210 93.660156 C 210.234375 93.628906 210.039062 93.601562 209.601562 93.601562 C 209.15625 93.601562 208.964844 93.628906 209.1875 93.660156 Z M 44.03125 93.660156 C 44.292969 93.691406 44.738281 93.691406 44.988281 93.660156 C 45.25 93.628906 45.046875 93.601562 44.515625 93.601562 C 43.984375 93.601562 43.777344 93.628906 44.03125 93.660156 Z M 31.054688 93.660156 C 31.246094 93.691406 31.574219 93.691406 31.792969 93.660156 C 32.03125 93.628906 31.867188 93.601562 31.46875 93.601562 C 31.054688 93.601562 30.878906 93.628906 31.054688 93.660156 Z M 211.769531 93.808594 C 211.867188 93.839844 212.050781 93.839844 212.136719 93.808594 C 212.238281 93.769531 212.167969 93.734375 211.957031 93.734375 C 211.75 93.734375 211.675781 93.769531 211.769531 93.808594 Z M 211.121094 93.796875 C 211.160156 93.839844 211.296875 93.855469 211.402344 93.808594 C 211.519531 93.769531 211.472656 93.722656 211.308594 93.722656 C 211.148438 93.707031 211.058594 93.75 211.121094 93.796875 Z M 41.300781 93.808594 C 41.523438 93.839844 41.921875 93.839844 42.183594 93.808594 C 42.453125 93.78125 42.273438 93.75 41.785156 93.75 C 41.300781 93.75 41.078125 93.78125 41.300781 93.808594 Z M 28.992188 93.808594 C 29.183594 93.839844 29.507812 93.839844 29.730469 93.808594 C 29.96875 93.78125 29.804688 93.75 29.40625 93.75 C 28.992188 93.75 28.816406 93.78125 28.992188 93.808594 Z M 38.574219 93.960938 C 38.765625 93.988281 39.089844 93.988281 39.308594 93.960938 C 39.546875 93.929688 39.386719 93.902344 38.988281 93.902344 C 38.574219 93.902344 38.398438 93.929688 38.574219 93.960938 Z M 36.214844 94.113281 C 36.40625 94.140625 36.703125 94.140625 36.878906 94.113281 C 37.070312 94.082031 36.921875 94.054688 36.554688 94.054688 C 36.183594 94.054688 36.039062 94.082031 36.214844 94.113281 Z M 33.5625 94.261719 C 33.753906 94.292969 34.078125 94.292969 34.296875 94.261719 C 34.535156 94.234375 34.375 94.203125 33.976562 94.203125 C 33.5625 94.203125 33.386719 94.234375 33.5625 94.261719 Z M 261.042969 95.808594 C 261.042969 95.898438 261.378906 95.941406 261.808594 95.925781 L 262.589844 95.914062 L 261.925781 95.808594 C 261.554688 95.746094 261.21875 95.6875 261.144531 95.6875 C 261.089844 95.671875 261.042969 95.71875 261.042969 95.808594 Z M 260.597656 95.71875 C 260.597656 95.761719 260.65625 95.839844 260.75 95.882812 C 260.820312 95.925781 260.894531 95.898438 260.894531 95.820312 C 260.894531 95.734375 260.820312 95.660156 260.75 95.660156 C 260.65625 95.660156 260.597656 95.6875 260.597656 95.71875 Z M 262.664062 95.867188 C 262.664062 95.914062 262.722656 95.988281 262.8125 96.035156 C 262.882812 96.078125 262.957031 96.046875 262.957031 95.972656 C 262.957031 95.882812 262.882812 95.808594 262.8125 95.808594 C 262.722656 95.808594 262.664062 95.839844 262.664062 95.867188 Z M 186.339844 96.0625 C 186.488281 96.09375 186.722656 96.09375 186.859375 96.0625 C 187.003906 96.019531 186.886719 95.988281 186.605469 95.988281 C 186.328125 95.988281 186.210938 96.019531 186.339844 96.0625 Z M 280.6875 98.597656 C 280.734375 98.644531 280.871094 98.660156 280.96875 98.613281 C 281.085938 98.570312 281.042969 98.527344 280.882812 98.527344 C 280.71875 98.511719 280.628906 98.554688 280.6875 98.597656 Z M 280.097656 98.597656 C 280.144531 98.644531 280.277344 98.660156 280.378906 98.613281 C 280.496094 98.570312 280.453125 98.527344 280.292969 98.527344 C 280.128906 98.511719 280.039062 98.554688 280.097656 98.597656 Z M 282.3125 98.765625 C 282.605469 98.792969 283.078125 98.792969 283.34375 98.765625 C 283.59375 98.738281 283.34375 98.707031 282.785156 98.707031 C 282.207031 98.707031 282.003906 98.738281 282.3125 98.765625 Z M 286.542969 99.050781 C 292.792969 99.546875 299.734375 100.324219 299.9375 100.550781 C 299.984375 100.609375 299.230469 100.609375 298.261719 100.550781 C 297.285156 100.503906 295.855469 100.417969 295.089844 100.386719 C 294.324219 100.34375 293.308594 100.265625 292.835938 100.222656 C 292.15625 100.164062 291.992188 100.191406 291.992188 100.371094 C 291.992188 100.492188 292.085938 100.625 292.175781 100.671875 C 292.367188 100.746094 290.949219 100.683594 288.679688 100.523438 C 288.03125 100.464844 287.53125 100.464844 287.574219 100.503906 C 287.664062 100.597656 294.429688 101.183594 295.902344 101.230469 C 296.300781 101.242188 296.90625 101.304688 297.226562 101.378906 C 297.554688 101.4375 298.453125 101.542969 299.21875 101.589844 C 300.855469 101.710938 300.972656 101.722656 302.609375 101.929688 C 303.304688 102.023438 304.660156 102.144531 305.628906 102.1875 C 306.605469 102.230469 308.492188 102.335938 309.828125 102.429688 C 311.996094 102.59375 312.382812 102.578125 313.410156 102.335938 C 314.28125 102.144531 314.621094 101.992188 314.785156 101.722656 C 315.238281 101.015625 314.785156 100.898438 311.378906 100.835938 C 309.992188 100.804688 307.445312 100.644531 305.703125 100.476562 C 303.023438 100.222656 293.75 99.457031 287.722656 98.992188 C 286.792969 98.917969 285.597656 98.851562 285.070312 98.851562 C 284.539062 98.851562 285.199219 98.945312 286.542969 99.050781 Z M 313.074219 99.726562 C 313.074219 99.832031 313.972656 100.011719 314.472656 100.011719 C 314.753906 99.996094 314.753906 99.996094 314.492188 99.785156 C 314.222656 99.578125 313.074219 99.53125 313.074219 99.726562 Z M 291.109375 100.34375 C 291.109375 100.417969 291.214844 100.464844 291.332031 100.464844 C 291.449219 100.464844 291.597656 100.464844 291.65625 100.476562 C 291.71875 100.476562 291.789062 100.417969 291.816406 100.34375 C 291.847656 100.25 291.699219 100.207031 291.480469 100.222656 C 291.273438 100.222656 291.109375 100.285156 291.109375 100.34375 Z M 287.027344 100.550781 C 287.074219 100.597656 287.203125 100.609375 287.308594 100.566406 C 287.425781 100.523438 287.382812 100.476562 287.21875 100.476562 C 287.058594 100.464844 286.96875 100.503906 287.027344 100.550781 Z M 287.027344 100.550781 " fill-opacity="1" fill-rule="nonzero"/></g><path fill="#000000" d="M 132.808594 91.484375 C 132.808594 91.542969 132.71875 91.605469 132.597656 91.605469 C 132.480469 91.605469 132.351562 91.542969 132.304688 91.484375 C 132.277344 91.425781 132.363281 91.363281 132.527344 91.363281 C 132.671875 91.363281 132.808594 91.425781 132.808594 91.484375 Z M 132.808594 91.484375 " fill-opacity="1" fill-rule="nonzero"/><path fill="#000000" d="M 293.101562 100.761719 C 293.21875 100.957031 293.027344 100.957031 292.734375 100.761719 C 292.542969 100.644531 292.542969 100.609375 292.765625 100.609375 C 292.894531 100.609375 293.058594 100.671875 293.101562 100.761719 Z M 293.101562 100.761719 " fill-opacity="1" fill-rule="nonzero"/><path fill="#000000" d="M 27.121094 94.171875 C 27.121094 94.246094 27.046875 94.277344 26.972656 94.234375 C 26.882812 94.1875 26.824219 94.113281 26.824219 94.066406 C 26.824219 94.035156 26.882812 94.007812 26.972656 94.007812 C 27.046875 94.007812 27.121094 94.082031 27.121094 94.171875 Z M 27.121094 94.171875 " fill-opacity="1" fill-rule="nonzero"/></svg>