<svg width="60" height="65" viewBox="0 0 145 200" fill="none" xmlns="http://www.w3.org/2000/svg">
<rect x="26" y="24" width="93" height="76" fill="#73FF81"/>
<path d="M134.557 0H10.1512C4.55378 0 0 4.55378 0 10.1512V189.849C0 195.446 4.55378 200 10.1512 200H134.557C140.155 200 144.708 195.446 144.708 189.849V10.1512C144.708 4.55378 140.155 0 134.557 0ZM138.229 189.849C138.229 191.873 136.582 193.521 134.557 193.521H10.1512C8.12657 193.521 6.47948 191.873 6.47948 189.849V10.1512C6.47948 8.12657 8.12657 6.47948 10.1512 6.47948H134.557C136.582 6.47948 138.229 8.12657 138.229 10.1512V189.849Z" fill="black"/>
<path d="M113.823 20.7343H30.8856C25.2882 20.7343 20.7344 25.2881 20.7344 30.8855V169.114C20.7344 174.712 25.2882 179.266 30.8856 179.266H113.823C119.42 179.266 123.974 174.712 123.974 169.114V30.8855C123.974 25.2881 119.42 20.7343 113.823 20.7343ZM30.8856 27.2138H113.823C115.848 27.2138 117.495 28.8609 117.495 30.8855V96.7603H27.2139V30.8855C27.2139 28.8609 28.8609 27.2138 30.8856 27.2138ZM113.823 172.786H30.8856C28.8609 172.786 27.2139 171.139 27.2139 169.114V103.24H117.495V169.114C117.495 171.139 115.848 172.786 113.823 172.786Z" fill="black"/>
<path d="M72.3543 117.495C61.0407 117.495 51.8359 126.699 51.8359 138.013C51.8359 149.327 61.0407 158.531 72.3543 158.531C83.6679 158.531 92.8727 149.327 92.8727 138.013C92.8727 126.699 83.6679 117.495 72.3543 117.495ZM72.3543 152.052C64.6135 152.052 58.3154 145.754 58.3154 138.013C58.3154 130.272 64.6135 123.974 72.3543 123.974C80.0951 123.974 86.3932 130.272 86.3932 138.013C86.3932 145.754 80.0951 152.052 72.3543 152.052Z" fill="black"/>
<path d="M72.354 82.5054C74.1432 82.5054 75.5937 81.0549 75.5937 79.2657V44.7084C75.5937 42.9192 74.1432 41.4687 72.354 41.4687C70.5648 41.4687 69.1143 42.9192 69.1143 44.7084V79.2657C69.1143 81.0549 70.5648 82.5054 72.354 82.5054Z" fill="black"/>
</svg>
